<svg xmlns="http://www.w3.org/2000/svg" viewBox="0 0 1200 800"><defs><linearGradient id="w" x1="0" x2="1"><stop stop-color="#2a1910"/><stop offset=".32" stop-color="#754624"/><stop offset=".55" stop-color="#c18a4e"/><stop offset=".8" stop-color="#70401f"/><stop offset="1" stop-color="#24150d"/></linearGradient><radialGradient id="r"><stop stop-color="#dfbd7e"/><stop offset=".5" stop-color="#87562b"/><stop offset="1" stop-color="#2c190e"/></radialGradient></defs><rect width="1200" height="800" fill="#211b15"/><ellipse cx="620" cy="410" rx="400" ry="310" fill="#c6955a" opacity=".08"/><g transform="translate(180 40) rotate(-8 430 360)"><path d="M370 190C230 230 130 390 190 550c50 140 210 200 370 120 150-75 185-230 110-360-60-105-170-155-300-120Z" fill="url(#w)" stroke="#120b07" stroke-width="14"/><path d="M390 230c-80 80-105 205-65 305 45 110 130 135 220 130" fill="none" stroke="#f3c887" stroke-opacity=".13" stroke-width="14"/><circle cx="475" cy="490" r="84" fill="#20130b" stroke="#d7ad70" stroke-width="8"/><circle cx="475" cy="490" r="63" fill="none" stroke="#e7c68f" stroke-width="3" stroke-dasharray="10 12"/><path d="M475 416l18 51 53 4-41 34 14 51-44-28-44 28 14-51-41-34 53-4z" fill="none" stroke="#e7c68f" stroke-width="5"/><path d="M440 220C450 120 452 45 475 25c23 20 25 95 35 195" fill="url(#r)" stroke="#130c08" stroke-width="13"/><g stroke="#f6e7c9" stroke-opacity=".7" stroke-width="3"><path d="M461 48l-18 435"/><path d="M470 48l-8 435"/><path d="M479 48l2 435"/><path d="M488 48l12 435"/></g></g></svg>